HIERARCHY
ROOT Hips
{
	OFFSET 0.000000 0.000000 0.000000
	CHANNELS 6 Xposition Yposition Zposition Zrotation Xrotation Yrotation
	JOINT RightUpLeg
	{
		OFFSET -10.795800 0.000000 0.000000
		CHANNELS 3 Zrotation Xrotation Yrotation
		JOINT RightLeg
		{
			OFFSET 0.000000 -39.557900 0.000000
			CHANNELS 3 Zrotation Xrotation Yrotation
			JOINT RightFoot
			{
				OFFSET 0.000000 -40.613400 0.000000
				CHANNELS 3 Zrotation Xrotation Yrotation
				JOINT RightToe
				{
					OFFSET 0.000000 -1.003500 12.392200
					CHANNELS 3 Zrotation Xrotation Yrotation
					JOINT RightToeEnd
					{
						OFFSET 0.000000 1.088300 5.767000
						CHANNELS 3 Zrotation Xrotation Yrotation
						End Site
						{
						    OFFSET 0.000000 0.927200 4.913300
						}
					}
				}
			}
		}
	}
	JOINT LeftUpLeg
	{
		OFFSET 10.795800 0.000000 0.000000
		CHANNELS 3 Zrotation Xrotation Yrotation
		JOINT LeftLeg
		{
			OFFSET 0.000000 -39.557900 0.000000
			CHANNELS 3 Zrotation Xrotation Yrotation
			JOINT LeftFoot
			{
				OFFSET 0.000000 -40.613400 0.000000
				CHANNELS 3 Zrotation Xrotation Yrotation
				JOINT LeftToe
				{
					OFFSET 0.000000 -1.003500 12.392200
					CHANNELS 3 Zrotation Xrotation Yrotation
					JOINT LeftToeEnd
					{
						OFFSET 0.000000 1.088300 5.767000
						CHANNELS 3 Zrotation Xrotation Yrotation
						End Site
						{
						    OFFSET 0.000000 0.927200 4.913300
						}
					}
				}
			}
		}
	}
	JOINT Spine
	{
		OFFSET 0.000000 15.108100 0.000000
		CHANNELS 3 Zrotation Xrotation Yrotation
		JOINT Spine1
		{
			OFFSET 0.000000 12.828000 0.000000
			CHANNELS 3 Zrotation Xrotation Yrotation
			JOINT Spine2
			{
				OFFSET 0.000000 11.155500 0.000000
				CHANNELS 3 Zrotation Xrotation Yrotation
				JOINT LeftShoulder
				{
					OFFSET 2.000000 11.155500 0.000000
					CHANNELS 3 Zrotation Xrotation Yrotation
					JOINT LeftArm
					{
						OFFSET 15.139800 0.000000 0.000000
						CHANNELS 3 Zrotation Xrotation Yrotation
						JOINT LeftForeArm
						{
							OFFSET 0.000000 -26.627300 0.000000
							CHANNELS 3 Zrotation Xrotation Yrotation
							JOINT LeftHand
							{
								OFFSET 0.000000 -24.932400 0.000000
								CHANNELS 3 Zrotation Xrotation Yrotation
								JOINT LeftFinger0
								{
									OFFSET 0.000000 -8.640100 0.000000
									CHANNELS 3 Zrotation Xrotation Yrotation
									End Site
									{
									    OFFSET 0.000000 -5.000000 0.000000
									}
								}
							}
						}
					}
				}
				JOINT RightShoulder
				{
					OFFSET -2.000000 11.155500 0.000000
					CHANNELS 3 Zrotation Xrotation Yrotation
					JOINT RightArm
					{
						OFFSET -15.139800 0.000000 0.000000
						CHANNELS 3 Zrotation Xrotation Yrotation
						JOINT RightForeArm
						{
							OFFSET 0.000000 -26.627300 0.000000
							CHANNELS 3 Zrotation Xrotation Yrotation
							JOINT RightHand
							{
								OFFSET 0.000000 -24.932400 0.000000
								CHANNELS 3 Zrotation Xrotation Yrotation
								JOINT RightFinger0
								{
									OFFSET 0.000000 -8.640100 0.000000
									CHANNELS 3 Zrotation Xrotation Yrotation
									End Site
									{
									    OFFSET 0.000000 -5.000000 0.000000
									}
								}
							}
						}
					}
				}
				JOINT Neck
				{
					OFFSET 0.000000 11.155500 0.000000
					CHANNELS 3 Zrotation Xrotation Yrotation
					JOINT Head
					{
						OFFSET 0.000000 10.940000 0.000000
						CHANNELS 3 Zrotation Xrotation Yrotation
						JOINT HeadTip
						{
							OFFSET 0.000000 10.000000 0.000000
							CHANNELS 3 Zrotation Xrotation Yrotation
							End Site
							{
							    OFFSET 0.000000 5.000000 0.000000
							}
						}
					}
				}
			}
		}
	}
}
MOTION
Frames:	10
Frame Time:	0.033332
53.221000 84.152600 4.092700 -4.573679 -2.079850 -0.069468 10.238213 -25.895316 -14.716645 -0.000000 42.421887 0.000000 21.400931 5.251874 -7.137541 0.000000 -11.855686 0.000000 -0.000000 0.000000 -0.000000 -12.607111 1.630024 19.083951 -0.000000 37.200466 -0.000000 -25.595292 22.923302 4.561821 0.000000 -22.983764 -0.000000 0.000000 0.000000 0.000000 1.682604 9.280594 -27.569380 -0.000000 10.174986 -0.000000 0.000000 0.000000 -0.000000 12.719977 -0.000000 1.437340 8.683557 -17.867652 -44.936825 -180.000037 -73.896291 180.000037 2.481447 2.087014 -29.873463 -0.000000 0.000000 -0.000000 0.136268 0.000000 -14.690302 -27.224866 11.455864 24.662165 -0.000767 -78.794950 -0.000630 1.600679 -6.865892 3.592655 -0.000000 -0.000000 -0.000000 0.000000 0.000000 -0.000000 15.712890 5.826751 -40.691417 0.000000 -0.000000 0.000000 
58.955200 83.213800 6.775500 -1.534698 -2.187323 -3.274479 8.798751 -19.876789 -9.182718 0.000000 33.296653 -0.000000 7.120284 2.137215 -8.529310 -0.000000 1.597698 -0.000000 0.000000 0.000000 -0.000000 -10.705553 -1.697245 25.317258 -0.000000 47.224385 0.000000 -25.594808 15.130781 13.009545 -0.000000 -22.081839 -0.000000 -0.000000 0.000000 0.000000 -1.432364 8.536522 -22.553203 -0.000000 10.097142 -0.000000 -0.000000 0.000000 -0.000000 12.209741 0.000000 1.968307 11.536852 -14.605481 -45.810036 -180.000037 -78.410965 -180.000037 2.026979 3.584846 -27.872596 -0.000000 0.000000 0.000000 -1.658766 0.000000 -14.676354 -26.115873 12.249412 24.752882 -0.001078 -81.970941 -0.000936 1.187952 -6.616802 3.197462 -0.000000 -0.000000 0.000000 -0.000000 0.000000 -0.000000 13.904716 5.322608 -43.632929 -0.000000 -0.000000 -0.000000 
63.528300 82.382000 9.252600 -3.090382 -3.816227 -5.808413 11.131825 -17.680534 2.480462 0.000000 35.287056 0.000000 3.613044 -1.295514 -17.278883 0.000000 1.468108 -0.000000 0.000000 0.000000 -0.000000 -0.077560 -3.286285 29.045211 -0.000000 58.549309 0.000000 -20.669695 7.904875 19.290606 -0.000000 -23.813378 -0.000000 -0.000000 0.000000 -0.000000 0.484520 11.276069 -17.506536 0.000000 8.519626 -0.000000 -0.000000 -0.000000 -0.000000 9.823138 -0.000000 2.930688 17.250045 -11.803602 -46.124476 180.000037 -82.530042 -180.000037 1.082479 5.097615 -27.010429 0.000000 0.000000 -0.000000 -0.729387 -0.000000 -13.851576 -28.233194 11.720671 25.060874 -0.001889 -85.399000 -0.001743 0.283024 -6.421566 3.041273 -0.000000 -0.000000 -0.000000 -0.000000 -0.000000 -0.000000 12.178501 4.243171 -46.703936 0.000000 0.000000 -0.000000 
68.746900 82.490100 11.251200 -3.405440 -4.256485 -6.131386 5.931002 -17.360622 -1.850032 0.000000 37.668317 0.000000 6.439162 -2.679601 -11.892307 -0.000000 1.717407 -0.000000 0.000000 0.000000 -0.000000 8.262986 -6.362258 26.018007 -0.000000 63.911876 0.000000 -14.421316 4.127012 20.624772 -0.000000 -23.995993 -0.000000 -0.000000 0.000000 -0.000000 1.028445 12.457605 -15.662747 -0.000000 8.580176 -0.000000 -0.000000 0.000000 -0.000000 7.548591 0.000000 4.538815 23.270847 -7.301147 -44.492243 -180.000037 -83.670451 -180.000037 1.154952 5.186716 -33.273219 -0.000000 -0.000000 -0.000000 -0.990972 0.000000 -12.342008 -27.734512 8.731737 25.202954 -0.001391 -83.763996 -0.001248 -0.354535 -7.086119 3.905798 -0.000000 -0.000000 0.000000 -0.000000 0.000000 -0.000000 11.249009 1.892454 -48.680278 -0.000000 -0.000000 0.000000 
73.691600 83.184800 13.052000 -2.620202 -3.585590 -5.992423 0.659432 -15.864166 -4.550290 -0.000000 35.361311 -0.000000 8.960438 -2.448938 -8.712529 0.000000 2.232504 0.000000 -0.000000 0.000000 0.000000 15.174124 -9.800207 22.790364 -0.000000 62.332497 -0.000000 -12.111482 3.935133 19.228582 -0.000000 -23.960817 -0.000000 -0.000000 -0.000000 -0.000000 -0.941731 12.022828 -13.018825 -0.000000 8.669343 -0.000000 -0.000000 -0.000000 0.000000 8.551262 -0.000000 5.549655 27.777340 -1.375783 -43.349488 180.000037 -81.991946 -180.000037 1.361869 4.372913 -34.399658 -0.000000 0.000000 0.000000 -2.283898 -0.000000 -11.974220 -24.084914 7.466030 24.990288 -0.000919 -80.603557 -0.000779 0.164876 -5.733556 7.865977 -0.000000 -0.000000 -0.000000 -0.000000 -0.000000 0.000000 13.408816 1.426984 -51.715727 -0.000000 -0.000000 0.000000 
79.007100 84.346800 14.697200 -1.798248 -1.973174 -6.461938 -3.649443 -14.679779 -4.061170 0.000000 30.968945 -0.000000 12.503123 0.759083 -8.335306 -0.000000 1.774140 0.000000 0.000000 -0.000000 -0.000000 20.480397 -12.087518 21.021920 0.000000 53.378534 -0.000000 -12.814215 5.405299 18.202387 0.000000 -23.558943 0.000000 -0.000000 0.000000 0.000000 -2.609935 11.035618 -9.218728 -0.000000 7.948986 0.000000 -0.000000 0.000000 -0.000000 9.107065 -0.000000 6.769215 32.825734 2.882879 -43.909667 -180.000037 -79.386002 -180.000037 1.969934 3.675904 -28.842199 -0.000000 -0.000000 -0.000000 -2.137954 0.000000 -12.765232 -22.867082 7.881343 25.358044 -0.000884 -80.237746 -0.000745 -0.912508 -5.756298 9.575022 -0.000000 0.000000 -0.000000 -0.000000 0.000000 -0.000000 15.072840 1.203516 -56.022455 -0.000000 0.000000 -0.000000 
84.758800 85.335700 16.820200 -0.761023 -1.383514 -6.032090 -8.363095 -11.604936 -2.660225 0.000000 25.636523 -0.000000 16.579759 4.356618 -9.779672 0.000000 0.818517 -0.000000 -0.000000 -0.000000 -0.000000 22.374396 -11.770493 17.208292 -0.000000 39.237167 0.000000 -14.509375 7.693562 24.413318 0.000000 -20.946788 0.000000 0.000000 0.000000 -0.000000 -3.813796 10.792374 -7.268439 -0.000000 7.620073 -0.000000 -0.000000 0.000000 -0.000000 9.230156 -0.000000 7.781943 37.601014 7.414958 -44.256519 -180.000037 -76.369961 -180.000037 3.216136 2.698483 -26.373284 0.000000 0.000000 -0.000000 -2.338837 0.000000 -13.728568 -22.080128 9.255645 25.596937 -0.001060 -81.836980 -0.000919 -0.133425 -5.877894 7.769138 -0.000000 0.000000 -0.000000 -0.000000 0.000000 -0.000000 14.395493 -0.246505 -59.606416 -0.000000 0.000000 0.000000 
90.891500 85.654000 19.006800 -0.099273 -1.566410 -5.792782 -13.068562 -8.906318 -1.123484 -0.000000 22.335659 -0.000000 20.347226 7.969680 -11.664387 -0.000000 0.058966 -0.000000 -0.000000 0.000000 -0.000000 22.801283 -9.910784 13.480797 0.000000 25.407986 -0.000000 -15.775838 11.385784 30.479384 -0.000000 -14.430060 0.000000 -0.000000 0.000000 0.000000 -4.047610 11.228379 -6.089578 -0.000000 7.799465 -0.000000 -0.000000 -0.000000 -0.000000 9.733334 0.000000 7.819412 40.475528 12.256443 -44.047503 -180.000037 -74.027609 -180.000037 4.629333 1.923105 -25.235318 -0.000000 0.000000 0.000000 -3.349039 -0.000000 -14.404635 -21.339727 10.539288 25.954171 -0.001502 -84.219023 -0.001357 0.305357 -5.545520 4.886079 -0.000000 0.000000 -0.000000 -0.000000 -0.000000 -0.000000 12.066176 -2.607588 -61.629525 -0.000000 -0.000000 -0.000000 
97.687500 85.065900 20.920700 0.550819 -1.420693 -7.105643 -17.824879 -9.726145 -0.102187 -0.000000 23.243533 -0.000000 22.052476 11.083457 -13.712342 -0.000000 -0.984897 -0.000000 -0.000000 0.000000 -0.000000 21.642905 -9.533590 7.669142 0.000000 19.811094 0.000000 -16.106360 16.311804 23.745470 -0.000000 -14.152665 -0.000000 0.000000 0.000000 -0.000000 -3.590569 11.533855 -4.501942 0.000000 7.830157 0.000000 -0.000000 0.000000 -0.000000 9.992340 -0.000000 7.842802 41.748551 16.019565 -44.011843 180.000037 -72.567089 180.000037 5.312706 1.885104 -23.893395 -0.000000 0.000000 0.000000 -4.563317 -0.000000 -15.144501 -21.811664 10.739951 26.669214 -0.002938 -87.038102 -0.002790 0.764756 -5.430955 2.915001 0.000000 0.000000 -0.000000 -0.000000 0.000000 -0.000000 8.729729 -5.230292 -62.407810 -0.000000 0.000000 -0.000000 
104.796900 83.506900 22.886400 1.125344 -2.038523 -9.356869 -22.165267 -12.629604 1.116304 -0.000000 28.125005 -0.000000 21.175826 12.947488 -17.298514 -0.000000 -2.388890 -0.000000 -0.000000 0.000000 -0.000000 18.922260 -9.340702 1.570170 0.000000 21.971731 0.000000 -24.473129 16.097814 19.075369 0.000000 -7.882870 0.000000 -0.000000 0.000000 -0.000000 -2.999584 12.301669 -3.571559 -0.000000 8.401388 -0.000000 -0.000000 0.000000 -0.000000 10.093592 0.000000 8.493238 41.996827 18.570071 -44.348735 -180.000037 -71.592373 -180.000037 6.781541 1.625610 -24.053525 0.000000 -0.000000 0.000000 -5.626355 0.000000 -14.797696 -22.718953 10.290613 25.937200 -179.981927 -89.519027 -179.981774 1.223731 -5.607959 4.732965 -0.000000 0.000000 -0.000000 -0.000000 0.000000 -0.000000 5.506864 -8.174588 -61.799961 -0.000000 -0.000000 -0.000000 
